<svg xmlns="http://www.w3.org/2000/svg" width="200" height="200" viewBox="0 0 200 200" version="1.1"><path d="" stroke="none" fill="#080404" fill-rule="evenodd"/><path d="M 84.500 8.867 C 69.587 13.152, 56.976 23.866, 50.208 38 C 45.008 48.859, 44 54.734, 44 74.184 L 44 90 41.450 90 C 37.643 90, 33.158 92.692, 30.960 96.299 C 29.106 99.338, 29.007 101.600, 29.007 141 C 29.007 179.843, 29.128 182.697, 30.886 185.580 C 34.886 192.140, 33.376 192, 100 192 C 166.624 192, 165.114 192.140, 169.114 185.580 C 170.872 182.698, 170.993 179.844, 170.996 141.200 C 171 95.607, 171.027 95.817, 164.701 91.960 C 162.941 90.886, 160.310 90.006, 158.856 90.004 L 156.212 90 155.778 70.750 C 155.381 53.155, 155.125 50.921, 152.799 44.758 C 145.715 25.993, 132.068 13.151, 114.356 8.584 C 106.316 6.511, 92.233 6.645, 84.500 8.867 M 85.798 15.931 C 70.715 20.753, 59.890 31.150, 53.970 46.500 C 51.925 51.802, 51.605 54.680, 51.220 71.250 L 50.784 90 56.297 90 L 61.809 90 62.155 71.750 C 62.495 53.756, 62.543 53.409, 65.587 47 C 69.320 39.138, 76.328 31.969, 83.929 28.236 C 88.926 25.782, 90.583 25.500, 100 25.500 C 109.417 25.500, 111.074 25.782, 116.071 28.236 C 123.672 31.969, 130.680 39.138, 134.413 47 C 137.457 53.409, 137.505 53.756, 137.845 71.750 L 138.191 90 143.595 90 L 149 90 148.985 74.250 C 148.969 56.990, 147.708 49.362, 143.424 40.614 C 137.844 29.218, 126.737 19.852, 114.217 15.985 C 105.960 13.435, 93.677 13.411, 85.798 15.931 M 88.329 34.093 C 81.979 36.534, 75.964 42.214, 72.313 49.216 C 69.665 54.297, 69.544 55.183, 69.182 72.250 L 68.806 90 100 90 L 131.194 90 130.818 72.250 C 130.456 55.183, 130.335 54.297, 127.687 49.216 C 120.043 34.555, 103.579 28.229, 88.329 34.093 M 37.655 98.829 C 36.172 100.467, 36 104.883, 36 141.272 L 36 181.887 38.223 183.443 C 40.174 184.810, 47.738 185, 100.223 185 C 158.667 185, 160.045 184.955, 162 183 C 163.934 181.066, 164 179.667, 164 140.655 C 164 102.839, 163.885 100.206, 162.171 98.655 C 160.512 97.153, 154.734 97, 99.826 97 C 42.469 97, 39.224 97.095, 37.655 98.829 M 97.200 102.200 C 96.540 102.860, 96 105.763, 96 108.650 L 96 113.900 90.250 114.200 L 84.500 114.500 84.500 129.500 L 84.500 144.500 96.750 144.781 L 109 145.062 109 153.900 L 109 162.738 105.250 163.358 C 103.188 163.699, 98.068 163.983, 93.872 163.989 C 88.143 163.997, 85.918 164.394, 84.930 165.584 C 82.637 168.348, 85.035 170.461, 90.853 170.802 L 96 171.105 96 175.481 C 96 179.476, 97.814 183, 99.871 183 C 101.822 183, 103 180.101, 103 175.300 L 103 170 108.941 170 C 112.209 170, 115.179 169.520, 115.542 168.933 C 115.904 168.346, 116.143 161.708, 116.071 154.183 C 115.962 142.696, 115.675 140.299, 114.280 139.250 C 113.189 138.430, 108.903 138, 101.809 138 L 91 138 91 129.500 L 91 121 101.929 121 C 110.530 121, 113.192 120.665, 114.429 119.429 C 117.602 116.256, 115.481 114.256, 108.475 113.814 L 103.500 113.500 103.190 108.022 C 102.822 101.518, 100.316 99.084, 97.200 102.200 M 64.317 114.998 C 59.688 118.402, 56.362 122.481, 52.897 129 C 50.859 132.834, 50.505 134.906, 50.503 143 C 50.500 151.369, 50.831 153.175, 53.281 158.164 C 59.183 170.182, 73 179.547, 73 171.529 C 73 170.025, 71.668 168.349, 69.008 166.505 C 54.928 156.748, 53.122 136.016, 65.292 123.858 C 67.140 122.011, 69.879 119.501, 71.378 118.280 C 73.664 116.417, 73.928 115.733, 73.016 114.030 C 71.512 111.219, 69.089 111.489, 64.317 114.998 M 125.978 114.040 C 125.046 115.782, 125.364 116.478, 128.148 118.790 C 134.597 124.148, 138.038 128.486, 140.002 133.735 C 144.745 146.413, 140.890 157.625, 128.148 168.210 C 125.364 170.522, 125.046 171.218, 125.978 172.960 C 126.579 174.082, 127.768 175, 128.622 175 C 131.388 175, 138.890 168.807, 142.535 163.514 C 153.393 147.749, 150.167 127.390, 134.897 115.307 C 130.092 111.504, 127.530 111.141, 125.978 114.040" stroke="none" fill="#040404" fill-rule="evenodd"/></svg>