<svg xmlns="http://www.w3.org/2000/svg" width="200" height="200" viewBox="0 0 200 200" version="1.1"><path d="" stroke="none" fill="currentColor" fill-rule="evenodd"/><path d="M 37.239 39.260 L 20 56.521 20 113.679 C 20 145.115, 20.273 171.548, 20.607 172.418 C 21.150 173.833, 26.846 174, 74.657 174 C 123.669 174, 128.365 174.145, 131.300 175.750 C 133.749 177.090, 136.846 177.497, 144.500 177.488 C 152.946 177.479, 155.233 177.114, 159.216 175.144 C 166.738 171.424, 172.574 165.611, 176.213 158.215 C 179.207 152.131, 179.497 150.731, 179.462 142.518 C 179.428 134.621, 179.065 132.782, 176.536 127.722 C 171.570 117.786, 161.068 109.656, 151.503 108.345 L 147 107.728 147 66.064 C 147 34.992, 146.695 24.095, 145.800 23.200 C 144.902 22.302, 133.253 22, 99.539 22 L 54.479 22 37.239 39.260 M 59.775 45.250 L 59.500 61.500 43.250 61.775 L 27 62.050 27 114.525 L 27 167 72.622 167 L 118.244 167 116.588 164.750 C 115.677 163.512, 113.720 160.025, 112.238 157 C 109.955 152.339, 109.543 150.203, 109.543 143 C 109.543 135.935, 109.985 133.551, 112.157 128.880 C 116.789 118.919, 124.804 111.842, 134.750 108.928 L 139 107.683 139 68.342 L 139 29 99.525 29 L 60.050 29 59.775 45.250 M 42.500 45 L 32.538 55 42.769 55 L 53 55 53 45 C 53 39.500, 52.879 35, 52.731 35 C 52.583 35, 47.979 39.500, 42.500 45 M 48.200 77.200 C 46.398 79.002, 46.754 81.798, 48.934 82.965 C 50.154 83.618, 62.919 84, 83.500 84 C 104.081 84, 116.846 83.618, 118.066 82.965 C 120.246 81.798, 120.602 79.002, 118.800 77.200 C 117.081 75.481, 49.919 75.481, 48.200 77.200 M 48.750 97.080 C 46.729 98.257, 46.459 101.059, 48.200 102.800 C 49.919 104.519, 117.081 104.519, 118.800 102.800 C 120.815 100.785, 120.166 98.013, 117.435 96.975 C 113.934 95.644, 51.050 95.740, 48.750 97.080 M 135.698 116.444 C 123.746 120.707, 116.989 130.453, 117.010 143.399 C 117.023 151.429, 120.198 158.244, 126.519 163.808 C 144.360 179.512, 172.243 166.820, 172.283 142.977 C 172.302 131.527, 167.146 123.228, 156.800 118.058 C 149.920 114.620, 142.420 114.046, 135.698 116.444 M 47.391 118.423 C 47.083 119.226, 46.988 120.697, 47.179 121.692 C 47.503 123.375, 49.152 123.500, 71.014 123.500 L 94.500 123.500 94.500 120.500 L 94.500 117.500 71.226 117.232 C 51.570 117.005, 47.864 117.190, 47.391 118.423 M 141.713 127.621 C 141.321 128.013, 141 130.733, 141 133.667 L 141 139 135.535 139 C 131.156 139, 129.865 139.384, 129.035 140.934 C 127.696 143.436, 127.712 143.569, 129.571 145.429 C 130.570 146.427, 132.919 147, 136.019 147 L 140.895 147 141.198 152.147 C 141.517 157.579, 143.317 159.860, 146.364 158.691 C 147.606 158.214, 148 156.730, 148 152.531 L 148 147 152.929 147 C 156.076 147, 158.425 146.432, 159.429 145.429 C 163.066 141.791, 160.427 139, 153.350 139 L 148.100 139 147.800 133.250 C 147.523 127.932, 147.310 127.478, 144.963 127.204 C 143.567 127.041, 142.104 127.229, 141.713 127.621 M 48.200 138.200 C 47.540 138.860, 47 140.120, 47 141 C 47 144.691, 48.854 145, 71 145 C 86.467 145, 92.941 144.659, 93.800 143.800 C 95.514 142.086, 95.282 138.322, 93.418 137.607 C 90.265 136.397, 49.468 136.932, 48.200 138.200" stroke="none" fill="currentColor" fill-rule="evenodd"/></svg>