<svg xmlns="http://www.w3.org/2000/svg" width="200" height="200" viewBox="0 0 200 200" version="1.1"><path d="" stroke="none" fill="#080404" fill-rule="evenodd"/><path d="M 87 1.433 C 62.462 8.272, 46.715 34.120, 52.385 58.250 C 56.753 76.840, 70.043 90.911, 87.535 95.467 C 114.766 102.560, 141.747 85.578, 147.671 57.617 C 152.875 33.055, 137.189 7.966, 112.500 1.361 C 106.336 -0.288, 93.040 -0.250, 87 1.433 M 88.842 8.389 C 86.281 9.079, 81.665 11.171, 78.586 13.037 C 73.032 16.403, 73.002 16.447, 74.939 18.384 C 76.876 20.321, 76.939 20.311, 82.696 17.253 C 85.888 15.556, 90.188 13.856, 92.250 13.473 C 95.557 12.860, 96 12.436, 96 9.889 C 96 6.663, 95.580 6.575, 88.842 8.389 M 104 9.843 C 104 12.443, 104.427 12.857, 107.750 13.473 C 109.813 13.856, 114.110 15.555, 117.299 17.250 C 122.790 20.167, 123.188 20.239, 124.799 18.601 C 126.402 16.970, 126.356 16.751, 124 14.790 C 120.706 12.048, 112.446 8.372, 107.750 7.559 C 104.121 6.930, 104 7.004, 104 9.843 M 17.343 20.772 C 15.604 22.164, 1 49.612, 1 51.487 C 1 51.769, 3.469 52, 6.488 52 L 11.975 52 12.238 88.750 L 12.500 125.500 16.250 125.810 L 20 126.121 20 85.560 L 20 45 15.960 45 L 11.920 45 16.710 35.750 C 19.345 30.663, 21.950 26.534, 22.500 26.576 C 23.050 26.617, 25.655 30.780, 28.290 35.826 L 33.080 45 29.028 45 L 24.976 45 25.238 82.250 L 25.500 119.500 29 119.500 L 32.500 119.500 32.763 85.750 L 33.027 52 38.513 52 C 41.531 52, 44 51.769, 44 51.488 C 44 49.447, 28.623 20.869, 27.081 20.043 C 24.178 18.490, 19.782 18.819, 17.343 20.772 M 90.718 21.376 C 78.915 25.777, 71.601 36.146, 71.649 48.410 C 71.682 56.756, 74.886 63.813, 81.233 69.520 C 92.233 79.410, 107.767 79.410, 118.767 69.520 C 133.839 55.968, 130.731 32.080, 112.694 22.834 C 107.380 20.110, 96.118 19.363, 90.718 21.376 M 66.734 23.742 C 64.231 26.507, 59.856 36.655, 59.264 41.068 C 58.770 44.748, 58.899 45, 61.271 45 C 63.534 45, 64.028 44.267, 65.883 38.160 C 67.025 34.398, 68.932 30.085, 70.119 28.576 C 72.259 25.855, 72.261 25.816, 70.325 23.881 C 68.444 21.999, 68.315 21.994, 66.734 23.742 M 129.589 23.902 C 127.933 25.732, 127.968 25.997, 130.355 29.660 C 131.731 31.772, 133.596 36.087, 134.500 39.250 C 135.949 44.325, 136.442 45, 138.703 45 C 141.099 45, 141.230 44.752, 140.743 41.124 C 140.111 36.408, 135.420 25.690, 133.049 23.545 C 131.479 22.124, 131.169 22.156, 129.589 23.902 M 96.714 25.619 C 96.321 26.012, 96 27.608, 96 29.167 C 96 31.080, 95.488 32, 94.423 32 C 93.556 32, 91.531 33.315, 89.923 34.923 C 87.762 37.084, 87 38.796, 87 41.489 C 87 48.574, 91.232 52, 99.982 52 C 103.595 52, 105.230 52.437, 105.643 53.513 C 107.295 57.818, 97.633 59.930, 94.268 56 C 93.318 54.891, 91.318 54, 89.778 54 C 87.554 54, 87 54.454, 87 56.277 C 87 59.439, 89.362 62.493, 92.960 63.984 C 95.351 64.974, 96 65.857, 96 68.121 C 96 70.813, 96.260 71, 100 71 C 103.740 71, 104 70.813, 104 68.121 C 104 65.857, 104.649 64.974, 107.040 63.984 C 113.680 61.233, 115.224 53.070, 110.077 47.923 C 107.584 45.430, 106.370 44.998, 101.827 44.985 C 95.669 44.967, 93.658 44.022, 94.161 41.380 C 94.647 38.828, 104.683 38.011, 105.618 40.447 C 105.995 41.429, 107.462 42, 109.607 42 C 112.375 42, 113 41.618, 113 39.923 C 113 37.520, 107.872 32, 105.640 32 C 104.664 32, 104.016 30.847, 103.813 28.750 C 103.543 25.946, 103.084 25.459, 100.464 25.203 C 98.794 25.039, 97.107 25.227, 96.714 25.619 M 59 53.818 C 59 57.393, 61.982 65.582, 65.038 70.399 L 68.146 75.299 70.170 73.275 L 72.194 71.250 69.668 67.375 C 68.279 65.244, 66.404 60.913, 65.500 57.750 C 64.081 52.779, 63.529 52, 61.429 52 C 59.747 52, 59 52.560, 59 53.818 M 135.667 52.667 C 135.300 53.033, 135 54.329, 135 55.546 C 135 56.763, 133.441 60.851, 131.537 64.630 C 128.139 71.369, 128.109 71.536, 129.964 73.399 C 131.820 75.264, 131.911 75.209, 134.962 70.399 C 138.018 65.582, 141 57.393, 141 53.818 C 141 52.580, 140.256 52, 138.667 52 C 137.383 52, 136.033 52.300, 135.667 52.667 M 75.586 77.905 C 74.714 78.869, 74 79.954, 74 80.316 C 74 82.190, 86.056 87.911, 93.250 89.450 C 95.756 89.986, 96 89.779, 96 87.119 C 96 84.447, 95.581 84.099, 91.062 83.015 C 88.346 82.363, 84.110 80.553, 81.648 78.992 C 77.407 76.302, 77.088 76.245, 75.586 77.905 M 119 78.645 C 117.075 79.991, 112.912 81.820, 109.750 82.710 C 104.470 84.196, 104 84.561, 104 87.183 C 104 89.774, 104.255 89.984, 106.750 89.450 C 114.282 87.838, 126 82.173, 126 80.142 C 126 79.685, 125.213 78.610, 124.250 77.754 C 122.653 76.334, 122.194 76.412, 119 78.645 M 180 83.500 C 180 86.833, 180.167 87, 183.500 87 C 186.833 87, 187 86.833, 187 83.500 C 187 80.167, 186.833 80, 183.500 80 C 180.167 80, 180 80.167, 180 83.500 M 180.239 133.750 L 180.500 174.500 183.750 174.813 C 185.537 174.986, 187 175.317, 187 175.549 C 187 177.103, 178.346 193, 177.500 193 C 176.654 193, 168 177.103, 168 175.549 C 168 175.317, 169.463 174.986, 171.250 174.813 L 174.500 174.500 174.762 137.250 L 175.024 100 171.012 100 L 167 100 167 133.500 L 167 167 161.500 167 C 158.475 167, 156 167.231, 156 167.512 C 156 169.553, 171.377 198.131, 172.919 198.957 C 173.991 199.530, 176.053 200, 177.500 200 C 178.947 200, 181.009 199.530, 182.081 198.957 C 183.623 198.131, 199 169.553, 199 167.512 C 199 167.231, 196.300 167, 193 167 L 187 167 187 130 L 187 93 183.489 93 L 179.978 93 180.239 133.750 M 56.303 104.197 C 51.226 106.650, 51 108.682, 51 151.951 C 51 194.739, 51.177 196.419, 55.945 198.970 C 58.577 200.379, 141.423 200.379, 144.055 198.970 C 148.823 196.419, 149 194.739, 149 151.951 C 149 108.281, 148.803 106.598, 143.405 104.139 C 140.050 102.610, 59.475 102.664, 56.303 104.197 M 59.035 111.934 C 57.920 114.018, 57.519 188.582, 58.607 191.418 C 59.147 192.824, 63.693 193, 99.572 193 C 138.449 193, 139.968 192.929, 140.965 191.066 C 141.626 189.831, 142 175.528, 142 151.500 C 142 127.472, 141.626 113.169, 140.965 111.934 C 140.067 110.256, 138.810 110, 131.465 110 L 123 110 123 119.500 L 123 129 100 129 L 77 129 77 119.500 L 77 110 68.535 110 C 61.190 110, 59.933 110.256, 59.035 111.934 M 84 116 L 84 122 87 122 C 89.667 122, 90 121.667, 90 119 C 90 116.238, 90.278 116, 93.500 116 C 96.722 116, 97 116.238, 97 119 C 97 121.667, 97.333 122, 100 122 C 102.667 122, 103 121.667, 103 119 C 103 116.238, 103.278 116, 106.500 116 C 109.722 116, 110 116.238, 110 119 C 110 121.667, 110.333 122, 113 122 L 116 122 116 116 L 116 110 100 110 L 84 110 84 116 M 12.384 133.442 C 11.141 136.681, 12.449 138.494, 16.258 138.810 C 19.938 139.116, 20 139.062, 20 135.560 C 20 132.152, 19.849 132, 16.469 132 C 14.316 132, 12.721 132.563, 12.384 133.442 M 64.188 170.721 L 64.500 174.500 77.500 174.500 L 90.500 174.500 90.500 171 L 90.500 167.500 77.188 167.221 L 63.876 166.941 64.188 170.721 M 64 183.500 L 64 187 77.500 187 L 91 187 91 183.500 L 91 180 77.500 180 L 64 180 64 183.500" stroke="none" fill="#040404" fill-rule="evenodd"/></svg>