<svg xmlns="http://www.w3.org/2000/svg" width="200" height="200" viewBox="0 0 200 200" version="1.1"><path d="" stroke="none" fill="#080404" fill-rule="evenodd"/><path d="M 130.612 8.212 C 129.888 10.020, 129.043 12.224, 128.734 13.108 C 128.425 13.992, 126.749 15, 125.011 15.348 C 122.757 15.799, 121.943 16.464, 122.175 17.668 C 122.687 20.327, 127.531 21.249, 141 21.249 C 147.875 21.249, 154.850 20.823, 156.500 20.302 C 160.723 18.970, 160.954 16.304, 156.937 15.263 C 154.352 14.594, 153.430 13.585, 152.096 9.968 L 150.448 5.500 141.189 5.212 L 131.930 4.924 130.612 8.212 M 127.004 25.840 C 127.010 28.600, 130.780 33.895, 134.241 36.005 C 140.600 39.883, 148.849 37.576, 153.005 30.759 C 156.867 24.426, 156.590 24.276, 141 24.226 C 128.604 24.186, 127 24.371, 127.004 25.840 M 128 42.591 C 123.837 44.390, 112.428 51.551, 109.250 54.360 C 105.904 57.317, 106.456 60.299, 112.185 70.227 C 117.705 79.791, 120.408 82.047, 124.250 80.295 L 126.500 79.269 126.177 104.990 C 125.821 133.242, 125.973 134.018, 131.821 133.985 C 138.289 133.948, 139 131.480, 139 109.066 C 139 91.134, 139.111 90, 140.863 90 C 142.602 90, 142.758 91.329, 143.207 109.999 C 143.628 127.476, 143.917 130.251, 145.499 131.999 C 148.586 135.410, 155.703 133.855, 156.117 129.679 C 156.450 126.313, 155.887 82.862, 155.377 72.500 C 154.843 61.664, 154.936 60.646, 156.339 62 C 157.193 62.825, 159.228 66.650, 160.860 70.500 C 162.492 74.350, 164.940 78.337, 166.299 79.360 C 168.491 81.009, 169.095 81.065, 171.635 79.853 C 175.830 77.851, 175.797 74.046, 171.494 63.952 C 167.561 54.724, 159.362 45.016, 153.282 42.390 C 148.844 40.473, 132.603 40.602, 128 42.591 M 50.424 47.869 C 43.574 51.024, 41.044 59.280, 44.960 65.701 C 50.355 74.551, 63.002 73.772, 67.177 64.334 C 68.762 60.750, 68.905 59.359, 68.023 56.085 C 66.999 52.284, 62.165 47.015, 59.673 46.986 C 59.028 46.979, 57.600 46.752, 56.500 46.482 C 55.400 46.212, 52.666 46.836, 50.424 47.869 M 123.817 58.869 L 121.134 60.592 124.050 65.546 L 126.966 70.500 126.983 63.750 C 126.992 60.038, 126.888 57.033, 126.750 57.073 C 126.612 57.113, 125.293 57.921, 123.817 58.869 M 25.200 59.200 C 22.369 62.031, 23.936 65.547, 32.491 75.561 L 40.983 85.500 40.991 107.168 C 40.996 119.086, 41.286 129.583, 41.636 130.495 C 42.690 133.242, 46.896 134.298, 49.635 132.504 C 51.904 131.017, 52 130.467, 52 118.977 L 52 107 55.500 107 L 59 107 59 118.309 C 59 130.795, 59.875 133.250, 64.325 133.250 C 69.883 133.250, 70 132.736, 70 108.337 L 70 85.919 79 75.392 C 83.950 69.601, 88 64.064, 88 63.087 C 88 60.795, 84.903 58, 82.362 58 C 79.816 58, 78.766 58.912, 70.563 68.250 L 63.755 76 55.988 76 C 47.130 76, 47.621 76.295, 38.066 65.250 C 33.172 59.593, 31.202 58, 29.097 58 C 27.614 58, 25.860 58.540, 25.200 59.200 M 168.233 108.250 L 168.500 133.500 171 133.500 L 173.500 133.500 173.767 108.250 L 174.034 83 171 83 L 167.966 83 168.233 108.250 M 89.821 144.357 C 81.967 146.535, 74.658 153.373, 72.138 160.899 C 69.166 169.777, 72.089 182.078, 78.624 188.191 C 85.167 194.313, 95.939 196.597, 105.193 193.824 C 110.435 192.254, 117.321 186.034, 120.042 180.413 C 122.996 174.311, 123.104 165.170, 120.295 159 C 115.027 147.430, 101.747 141.049, 89.821 144.357 M 154.566 145.328 C 151.087 147.872, 152.307 151.742, 158.594 158.095 L 164.437 164 146.719 164 L 129 164 129 169.500 L 129 175 146.719 175 L 164.437 175 158.594 180.905 C 152.307 187.258, 151.087 191.128, 154.566 193.672 C 158.198 196.328, 160.299 195.106, 171.702 183.702 C 186.531 168.873, 186.533 169.875, 171.654 155.195 C 160.253 143.947, 158.131 142.721, 154.566 145.328 M 93.628 154.528 C 93.282 155.427, 93 159.455, 93 163.478 L 93 170.792 97.963 173.976 C 103.765 177.700, 106.367 177.635, 106.815 173.756 C 107.077 171.486, 106.540 170.748, 103.605 169.349 C 100.114 167.684, 100.078 167.603, 99.790 160.584 C 99.511 153.770, 99.400 153.488, 96.878 153.196 C 95.169 152.998, 94.037 153.462, 93.628 154.528 M 17.496 166.365 C 15.702 169.104, 16.758 173.310, 19.505 174.364 C 20.417 174.714, 30.802 175, 42.582 175 L 64 175 64 169.500 L 64 164 41.523 164 L 19.046 164 17.496 166.365" stroke="none" fill="#040404" fill-rule="evenodd"/></svg>